<svg width="19" height="18" viewBox="0 0 19 18" fill="none" xmlns="http://www.w3.org/2000/svg">
<path d="M9.14624 16.4995C13.2884 16.4995 16.6462 13.1416 16.6462 8.99951C16.6462 4.85738 13.2884 1.49951 9.14624 1.49951C5.0041 1.49951 1.64624 4.85738 1.64624 8.99951C1.64624 13.1416 5.0041 16.4995 9.14624 16.4995Z" stroke="#555555" stroke-width="1.38462" stroke-linecap="round" stroke-linejoin="round"/>
<path d="M9.8348 10.5788H7.61882V9.68441H9.8348C10.2639 9.68441 10.6114 9.61605 10.8773 9.47933C11.1431 9.34261 11.3368 9.15272 11.4583 8.90967C11.5837 8.66661 11.6463 8.38938 11.6463 8.07796C11.6463 7.79313 11.5837 7.52539 11.4583 7.27474C11.3368 7.02409 11.1431 6.82281 10.8773 6.6709C10.6114 6.51519 10.2639 6.43734 9.8348 6.43734H7.87516V13.8315H6.77572V5.53727H9.8348C10.4614 5.53727 10.9912 5.64551 11.4242 5.86198C11.8571 6.07845 12.1856 6.37847 12.4097 6.76204C12.6337 7.14182 12.7458 7.57666 12.7458 8.06657C12.7458 8.59825 12.6337 9.05208 12.4097 9.42806C12.1856 9.80404 11.8571 10.0908 11.4242 10.2882C10.9912 10.4819 10.4614 10.5788 9.8348 10.5788Z" fill="#555555"/>
</svg>
