<svg width="12" height="11" viewBox="0 0 12 11" fill="none" xmlns="http://www.w3.org/2000/svg">
<path fill-rule="evenodd" clip-rule="evenodd" d="M0.80131 5.41206C0.851574 2.65289 3.04779 0.450638 5.69639 0.500842C8.32153 0.549706 10.2899 2.46145 10.2738 5.18849H11.3092C11.3791 5.26001 11.4182 5.35598 11.4182 5.45591C11.4182 5.55584 11.3791 5.65181 11.3092 5.72332L10.0721 7.07279C10.0379 7.10803 9.99707 7.13606 9.95188 7.1552C9.90669 7.17434 9.85811 7.18421 9.80902 7.18421C9.75993 7.18421 9.71135 7.17434 9.66616 7.1552C9.62097 7.13606 9.58009 7.10803 9.54597 7.07279L8.38989 5.72332C8.31969 5.65197 8.28036 5.55594 8.28036 5.45591C8.28036 5.35587 8.31969 5.25984 8.38989 5.18849H9.3429C9.35832 2.95411 7.82894 1.45069 5.67896 1.41053C3.51223 1.36902 1.71679 3.17099 1.67457 5.42813C1.63302 7.6518 3.31319 9.49593 5.43635 9.58898V10.5C2.82462 10.4076 0.751046 8.14379 0.80131 5.41206Z" fill="black"/>
</svg>
