<svg width="19" height="18" viewBox="0 0 19 18" fill="none" xmlns="http://www.w3.org/2000/svg">
<path d="M5.58498 13.1104L3.3207 15.0139C3.2387 15.0828 3.13873 15.1269 3.03254 15.1409C2.92635 15.155 2.81835 15.1384 2.72125 15.0932C2.62415 15.048 2.54198 14.976 2.4844 14.8856C2.42683 14.7953 2.39624 14.6904 2.39624 14.5833V3.41602C2.39624 3.26683 2.4555 3.12376 2.56099 3.01827C2.66648 2.91278 2.80956 2.85352 2.95874 2.85352H15.3337C15.4829 2.85352 15.626 2.91278 15.7315 3.01827C15.837 3.12376 15.8962 3.26683 15.8962 3.41602V12.416C15.8962 12.5652 15.837 12.7083 15.7315 12.8138C15.626 12.9193 15.4829 12.9785 15.3337 12.9785H5.94693C5.81451 12.9785 5.68634 13.0252 5.58498 13.1104Z" stroke="#555555" stroke-width="1.2" stroke-linecap="round" stroke-linejoin="round"/>
</svg>
